<svg width="220" height="52" viewBox="0 0 220 52" fill="none" xmlns="http://www.w3.org/2000/svg">
  <!-- Shield emblem — refined -->
  <g transform="translate(0, 1)">
    <!-- Outer shield -->
    <path d="M24 1L44 8V24C44 35 35 43 24 48C13 43 4 35 4 24V8L24 1Z" fill="#1B2A4A" stroke="#C5A572" stroke-width="1.5"/>
    <!-- Inner gold border -->
    <path d="M24 5L40 11V24C40 33 32 39 24 44C16 39 8 33 8 24V11L24 5Z" fill="none" stroke="#C5A572" stroke-width="0.5" opacity="0.4"/>
    <!-- Garuda silhouette (simplified) -->
    <path d="M24 10L27 15H31L28 19L29.5 24L24 21L18.5 24L20 19L17 15H21L24 10Z" fill="#C5A572"/>
    <!-- Wings -->
    <path d="M14 17C14 17 17 14 20 15" stroke="#C5A572" stroke-width="0.8" fill="none" stroke-linecap="round"/>
    <path d="M34 17C34 17 31 14 28 15" stroke="#C5A572" stroke-width="0.8" fill="none" stroke-linecap="round"/>
    <!-- Base lines -->
    <line x1="15" y1="30" x2="33" y2="30" stroke="#C5A572" stroke-width="0.8" opacity="0.6"/>
    <line x1="17" y1="33" x2="31" y2="33" stroke="#C5A572" stroke-width="0.6" opacity="0.4"/>
    <line x1="19" y1="36" x2="29" y2="36" stroke="#C5A572" stroke-width="0.4" opacity="0.3"/>
  </g>
  <!-- BOI text — bold, tracked -->
  <text x="56" y="24" font-family="Inter, system-ui, sans-serif" font-size="26" font-weight="800" fill="#1B2A4A" letter-spacing="3">BOI</text>
  <!-- Divider line -->
  <line x1="56" y1="30" x2="106" y2="30" stroke="#C5A572" stroke-width="1" opacity="0.5"/>
  <!-- THAILAND text -->
  <text x="56" y="42" font-family="Inter, system-ui, sans-serif" font-size="10" font-weight="600" fill="#C5A572" letter-spacing="4">THAILAND</text>
</svg>
